<svg width="180" height="180" viewBox="0 0 180 180" fill="none" xmlns="http://www.w3.org/2000/svg">
<circle cx="90" cy="90" r="87.5" stroke="#00FFB3" stroke-width="5"/>
<path d="M43.0413 123C42.2944 123 41.2675 122.162 39.9605 120.485C38.6535 118.744 38 117.1 38 115.552C38 114.004 39.3692 107.685 42.1077 96.5932C41.2986 96.2707 40.5829 95.7226 39.9605 94.9488C39.4004 94.1105 39.1203 93.1754 39.1203 92.1437C39.1203 91.3054 40.7385 90.3703 43.9749 89.3386C48.1448 72.4433 50.2298 61.9644 50.2298 57.9018C50.2298 56.8056 50.3543 56.064 50.6032 55.6771C50.9144 55.2257 51.4746 55 52.2837 55C53.155 55 54.2753 55.9995 55.6445 57.9986C57.076 59.9976 57.7917 62.2546 57.7917 64.7696C57.7917 67.22 56.2669 74.6681 53.2172 87.1138C61.4327 85.3727 69.4925 84.2442 77.3968 83.7283C80.5709 70.3153 82.158 61.7065 82.158 57.9018C82.158 55.9673 82.7804 55 84.0251 55C85.0832 55 86.3279 55.9995 87.7594 57.9986C89.1909 59.9976 89.9066 62.0934 89.9066 64.2859C89.9066 66.4139 88.5063 72.9592 85.7056 83.9218C88.5685 84.3732 90 85.276 90 86.6302C90 87.9199 88.0706 88.9839 84.2119 89.8222C82.2202 97.4315 80.851 102.719 80.1041 105.686C79.4195 108.587 78.8594 110.909 78.4237 112.65C77.988 114.391 77.5212 116.132 77.0233 117.873C76.152 121.291 75.374 123 74.6894 123C73.8181 123 72.7911 122.258 71.6086 120.775C70.4883 119.228 69.9282 117.648 69.9282 116.036C69.9282 114.423 71.7953 106.137 75.5296 91.1764C66.4428 92.4661 58.2585 93.9493 50.9767 95.6259C50.1053 98.9791 49.2651 102.236 48.456 105.395C47.7092 108.491 47.1179 110.909 46.6822 112.65C46.2466 114.391 45.7798 116.132 45.2819 117.873C44.4105 121.291 43.6637 123 43.0413 123Z" fill="#00FFB3"/>
<path d="M121.203 63.023L104.797 63.8058C103.774 63.8058 102.718 63.1209 101.631 61.7511C100.544 60.3813 100 59.0441 100 57.7396C100 56.5655 101.823 55.8153 105.469 55.4892C109.178 55.1631 117.269 55 129.742 55C136.202 55 141.51 55.7175 145.668 57.1525C149.889 58.5875 152 60.1856 152 61.9468C152 63.1861 150.945 63.8058 148.834 63.8058C146.723 63.8058 143.781 63.6753 140.007 63.4144C136.234 63.1535 132.62 62.9904 129.166 62.9252C129.358 63.5775 129.454 64.295 129.454 65.0777C129.454 67.4911 126.959 78.7103 121.97 98.7353C121.459 100.823 120.691 104.084 119.668 108.519C118.645 112.955 117.877 116.053 117.365 117.814C116.47 121.271 115.67 123 114.967 123C114.007 123 112.92 122.282 111.705 120.847C110.554 119.347 109.978 117.847 109.978 116.347C109.978 114.847 111.705 107.15 115.159 93.2561C118.613 79.2974 120.627 69.2197 121.203 63.023Z" fill="#00FFB3"/>
</svg>
