<svg width="42" height="42" viewBox="0 0 42 42" fill="none" xmlns="http://www.w3.org/2000/svg">
<circle cx="21" cy="21" r="20" fill="#155B4A" stroke="#00FFB3" stroke-width="2"/>
<path d="M9.26032 28C9.07361 28 8.81688 27.8151 8.49013 27.4452C8.16338 27.0612 8 26.6984 8 26.357C8 26.0156 8.34231 24.6216 9.02693 22.175C8.82466 22.1038 8.64572 21.9829 8.49013 21.8122C8.35009 21.6273 8.28007 21.4211 8.28007 21.1935C8.28007 21.0085 8.68462 20.8023 9.49372 20.5747C10.5362 16.8478 11.0575 14.5363 11.0575 13.6401C11.0575 13.3983 11.0886 13.2347 11.1508 13.1494C11.2286 13.0498 11.3686 13 11.5709 13C11.7887 13 12.0688 13.2205 12.4111 13.6615C12.769 14.1024 12.9479 14.6003 12.9479 15.1551C12.9479 15.6956 12.5667 17.3385 11.8043 20.0839C13.8582 19.6999 15.8731 19.4509 17.8492 19.3371C18.6427 16.3784 19.0395 14.4794 19.0395 13.6401C19.0395 13.2134 19.1951 13 19.5063 13C19.7708 13 20.082 13.2205 20.4399 13.6615C20.7977 14.1024 20.9767 14.5647 20.9767 15.0484C20.9767 15.5178 20.6266 16.9616 19.9264 19.3798C20.6421 19.4794 21 19.6785 21 19.9772C21 20.2617 20.5177 20.4964 19.553 20.6814C19.0551 22.3599 18.7127 23.5263 18.526 24.1807C18.3549 24.8208 18.2148 25.3329 18.1059 25.7169C17.997 26.101 17.8803 26.4851 17.7558 26.8691C17.538 27.623 17.3435 28 17.1724 28C16.9545 28 16.6978 27.8364 16.4022 27.5092C16.1221 27.1679 15.982 26.8193 15.982 26.4637C15.982 26.1081 16.4488 24.2802 17.3824 20.9801C15.1107 21.2646 13.0646 21.5918 11.2442 21.9616C11.0263 22.7013 10.8163 23.4196 10.614 24.1166C10.4273 24.7994 10.2795 25.3329 10.1706 25.7169C10.0616 26.101 9.94494 26.4851 9.82047 26.8691C9.60263 27.623 9.41592 28 9.26032 28Z" fill="#00FFB3"/>
<path d="M27.893 14.7698L24.107 14.9424C23.8708 14.9424 23.6273 14.7914 23.3764 14.4892C23.1255 14.1871 23 13.8921 23 13.6043C23 13.3453 23.4207 13.1799 24.262 13.1079C25.1181 13.036 26.9852 13 29.8635 13C31.3542 13 32.5793 13.1583 33.5387 13.4748C34.5129 13.7914 35 14.1439 35 14.5324C35 14.8058 34.7565 14.9424 34.2694 14.9424C33.7823 14.9424 33.1033 14.9137 32.2325 14.8561C31.3616 14.7986 30.5277 14.7626 29.7306 14.7482C29.7749 14.8921 29.797 15.0504 29.797 15.223C29.797 15.7554 29.2214 18.2302 28.0701 22.6475C27.952 23.1079 27.7749 23.8273 27.5387 24.8058C27.3026 25.7842 27.1255 26.4676 27.0074 26.8561C26.8007 27.6187 26.6162 28 26.4539 28C26.2325 28 25.9815 27.8417 25.7011 27.5252C25.4354 27.1942 25.3026 26.8633 25.3026 26.5324C25.3026 26.2014 25.7011 24.5036 26.4982 21.4388C27.2952 18.3597 27.7601 16.1367 27.893 14.7698Z" fill="#00FFB3"/>
</svg>
