<svg width="147" height="30" viewBox="0 0 147 30" fill="none" xmlns="http://www.w3.org/2000/svg">
<path d="M31.38 0.319999C31.58 0.319999 31.68 0.369999 31.68 0.469999C31.68 0.609999 31.57 0.829999 31.35 1.13C29.23 3.91 26.94 7.29 24.48 11.27C22.04 15.25 20.35 18.35 19.41 20.57C19.25 20.91 19.12 20.99 19.02 20.81C19 20.75 18.99 20.64 18.99 20.48C18.99 19.66 20.07 17.42 22.23 13.76C24.41 10.1 26.38 6.95 28.14 4.31C29.92 1.67 30.92 0.349999 31.14 0.349999L31.38 0.319999ZM19.38 3.11C19.56 3.11 19.65 3.16 19.65 3.26C19.65 3.4 19.54 3.62 19.32 3.92C17.7 6.08 15.97 8.57 14.13 11.39C15.07 11.45 16 11.57 16.92 11.75C19.92 12.37 21.42 13.33 21.42 14.63C21.42 14.71 21.4 14.75 21.36 14.75C21.32 14.75 21.28 14.7 21.24 14.6C21.04 14.1 19.94 13.76 17.94 13.58C17.34 13.52 16.61 13.49 15.75 13.49C14.89 13.49 13.86 13.55 12.66 13.67C9.7 18.37 7.73 21.88 6.75 24.2C6.65 24.42 6.55 24.53 6.45 24.53C6.37 24.53 6.33 24.43 6.33 24.23C6.33 23.23 8.16 19.73 11.82 13.73C10.66 13.89 9.81 14.02 9.27 14.12C5.75 14.74 3.43 15.7 2.31 17C1.97 17.42 1.8 17.81 1.8 18.17C1.8 18.53 2 18.87 2.4 19.19C2.52 19.27 2.5 19.31 2.34 19.31L2.07 19.22C1.21 18.56 0.78 17.79 0.78 16.91C0.78 16.05 1.19 15.21 2.01 14.39C3.21 13.19 5.26 12.33 8.16 11.81C9.9 11.51 11.53 11.36 13.05 11.36C13.13 11.36 13.22 11.36 13.32 11.36C16.84 5.88 18.77 3.14 19.11 3.14L19.38 3.11ZM35.3857 15.38C35.1657 15.64 34.9357 15.92 34.6957 16.22C34.4757 16.52 34.1857 16.93 33.8257 17.45C33.4857 17.97 33.3157 18.41 33.3157 18.77C33.3157 19.13 33.4657 19.31 33.7657 19.31C34.0857 19.31 34.5957 19.12 35.2957 18.74C36.6957 17.94 38.2457 16.74 39.9457 15.14C40.1457 14.94 40.2757 14.91 40.3357 15.05C40.3357 15.07 40.3357 15.11 40.3357 15.17C40.3357 15.23 40.2957 15.3 40.2157 15.38C36.7757 18.62 34.2757 20.24 32.7157 20.24C32.2557 20.24 31.8657 20.09 31.5457 19.79C31.2457 19.47 31.0957 19.1 31.0957 18.68C31.0957 18.26 31.2757 17.62 31.6357 16.76C30.7357 17.88 29.7657 18.75 28.7257 19.37C27.7057 19.97 26.9057 20.27 26.3257 20.27C25.7457 20.27 25.2457 20.1 24.8257 19.76C24.4257 19.4 24.2257 18.96 24.2257 18.44C24.2257 16.96 24.8857 15.51 26.2057 14.09C27.2057 13.03 28.4457 12.28 29.9257 11.84C30.5857 11.62 31.2257 11.51 31.8457 11.51C32.4857 11.51 33.0957 11.69 33.6757 12.05C34.2757 12.39 34.6557 12.8 34.8157 13.28C35.4157 13.28 35.8457 13.5 36.1057 13.94C36.1457 14 36.1657 14.1 36.1657 14.24C36.1657 14.38 36.0857 14.54 35.9257 14.72C35.7857 14.9 35.6057 15.12 35.3857 15.38ZM33.1957 12.41C32.7757 12.41 32.2757 12.54 31.6957 12.8C30.6757 13.24 29.7057 14 28.7857 15.08C27.3257 16.8 26.5957 18.06 26.5957 18.86C26.5957 19.28 26.7657 19.49 27.1057 19.49C27.3857 19.49 27.8457 19.31 28.4857 18.95C29.1457 18.59 30.0057 17.88 31.0657 16.82C31.1257 16.76 31.3557 16.54 31.7557 16.16C32.1557 15.78 32.4957 15.45 32.7757 15.17C33.7157 14.19 34.1857 13.49 34.1857 13.07C34.1857 12.63 33.8557 12.41 33.1957 12.41ZM37.1084 18.35C37.0884 18.33 37.0784 18.3 37.0784 18.26C37.0784 18.22 37.1184 18.2 37.1984 18.2C37.2584 18.2 37.2984 18.24 37.3184 18.32C37.6784 19.12 38.2684 19.52 39.0884 19.52C40.1084 19.52 40.9984 19.02 41.7584 18.02C42.3184 17.28 42.8084 16.51 43.2284 15.71C43.6684 14.89 44.0284 14.24 44.3084 13.76C44.6084 13.28 45.0584 12.74 45.6584 12.14C46.2784 11.54 46.8384 11.17 47.3384 11.03C47.2184 10.97 47.0184 10.94 46.7384 10.94C46.4584 10.94 45.9284 11.15 45.1484 11.57C44.3884 11.97 43.6284 12.49 42.8684 13.13C42.1084 13.75 41.2884 14.46 40.4084 15.26C39.5284 16.06 38.9984 16.53 38.8184 16.67C38.6384 16.81 38.5284 16.81 38.4884 16.67C38.4484 16.53 38.4984 16.4 38.6384 16.28C39.1584 15.84 39.9084 15.16 40.8884 14.24C41.8684 13.3 42.6084 12.62 43.1084 12.2C43.6284 11.76 44.2084 11.39 44.8484 11.09C45.4884 10.77 45.9684 10.61 46.2884 10.61C47.0884 10.61 47.5784 10.75 47.7584 11.03C47.2384 11.25 46.8084 11.83 46.4684 12.77C46.1484 13.71 45.7784 14.8 45.3584 16.04C44.9584 17.28 44.4484 18.25 43.8284 18.95C44.3484 18.75 45.1484 18.29 46.2284 17.57C47.3284 16.83 48.2984 16.03 49.1384 15.17C49.3184 15.01 49.4484 14.99 49.5284 15.11C49.5284 15.15 49.5284 15.2 49.5284 15.26C49.5284 15.3 49.3384 15.51 48.9584 15.89C48.5784 16.27 48.1084 16.7 47.5484 17.18C47.0084 17.64 46.3284 18.16 45.5084 18.74C43.8084 19.94 42.0984 20.54 40.3784 20.54C38.6784 20.54 37.5884 19.81 37.1084 18.35ZM55.0376 15.32C56.0976 14.74 56.6276 14.15 56.6276 13.55C56.6276 12.95 56.2676 12.65 55.5476 12.65C55.2076 12.65 54.8476 12.74 54.4676 12.92C53.6276 13.3 52.8176 13.96 52.0376 14.9C51.0776 16.06 50.5976 17.14 50.5976 18.14C50.5976 18.52 50.6976 18.88 50.8976 19.22C51.1176 19.54 51.4976 19.7 52.0376 19.7C52.9776 19.7 54.1676 19.21 55.6076 18.23C57.0476 17.23 58.2876 16.23 59.3276 15.23C59.5676 14.99 59.6876 14.98 59.6876 15.2C59.6876 15.34 59.6276 15.46 59.5076 15.56C58.7676 16.24 58.2676 16.7 58.0076 16.94C57.7676 17.16 57.2776 17.57 56.5376 18.17C55.7976 18.75 55.1976 19.16 54.7376 19.4C53.3176 20.14 52.1076 20.51 51.1076 20.51C50.1276 20.51 49.3476 20.29 48.7676 19.85C48.2076 19.39 47.9276 18.76 47.9276 17.96C47.9276 16.26 48.6876 14.8 50.2076 13.58C51.7276 12.34 53.3176 11.72 54.9776 11.72C56.0976 11.72 56.8476 11.96 57.2276 12.44C57.3876 12.68 57.4676 12.94 57.4676 13.22C57.4676 13.48 57.3776 13.77 57.1976 14.09C56.8376 14.71 56.1576 15.26 55.1576 15.74C54.1776 16.2 53.2476 16.43 52.3676 16.43C52.0276 16.43 51.8376 16.4 51.7976 16.34C51.7776 16.28 51.8076 16.24 51.8876 16.22C51.9676 16.18 52.0776 16.16 52.2176 16.16C53.0176 16.16 53.9576 15.88 55.0376 15.32ZM65.2915 15.32C66.3515 14.74 66.8815 14.15 66.8815 13.55C66.8815 12.95 66.5215 12.65 65.8015 12.65C65.4615 12.65 65.1015 12.74 64.7215 12.92C63.8815 13.3 63.0715 13.96 62.2915 14.9C61.3315 16.06 60.8515 17.14 60.8515 18.14C60.8515 18.52 60.9515 18.88 61.1515 19.22C61.3715 19.54 61.7515 19.7 62.2915 19.7C63.2315 19.7 64.4215 19.21 65.8615 18.23C67.3015 17.23 68.5415 16.23 69.5815 15.23C69.8215 14.99 69.9415 14.98 69.9415 15.2C69.9415 15.34 69.8815 15.46 69.7615 15.56C69.0215 16.24 68.5215 16.7 68.2615 16.94C68.0215 17.16 67.5315 17.57 66.7915 18.17C66.0515 18.75 65.4515 19.16 64.9915 19.4C63.5715 20.14 62.3615 20.51 61.3615 20.51C60.3815 20.51 59.6015 20.29 59.0215 19.85C58.4615 19.39 58.1815 18.76 58.1815 17.96C58.1815 16.26 58.9415 14.8 60.4615 13.58C61.9815 12.34 63.5715 11.72 65.2315 11.72C66.3515 11.72 67.1015 11.96 67.4815 12.44C67.6415 12.68 67.7215 12.94 67.7215 13.22C67.7215 13.48 67.6315 13.77 67.4515 14.09C67.0915 14.71 66.4115 15.26 65.4115 15.74C64.4315 16.2 63.5015 16.43 62.6215 16.43C62.2815 16.43 62.0915 16.4 62.0515 16.34C62.0315 16.28 62.0615 16.24 62.1415 16.22C62.2215 16.18 62.3315 16.16 62.4715 16.16C63.2715 16.16 64.2115 15.88 65.2915 15.32ZM80.2854 13.04C80.2854 14.44 79.5854 15.96 78.1854 17.6C77.1454 18.82 76.0054 19.72 74.7654 20.3C74.1054 20.6 73.5254 20.75 73.0254 20.75C72.5454 20.75 72.1054 20.61 71.7054 20.33C71.3054 20.07 71.1054 19.66 71.1054 19.1C71.1054 18.54 71.1854 17.99 71.3454 17.45C70.6454 18.51 70.0954 19.26 69.6954 19.7C69.2954 20.14 68.9154 20.36 68.5554 20.36C68.5154 20.36 68.4654 20.36 68.4054 20.36C67.8854 20.36 67.3854 20.15 66.9054 19.73C68.2054 17.91 69.2154 16.43 69.9354 15.29C69.4754 15.75 68.9054 16.26 68.2254 16.82C68.0454 16.96 67.9254 16.99 67.8654 16.91C67.7854 16.81 67.8554 16.66 68.0754 16.46C68.6754 15.96 69.0954 15.6 69.3354 15.38C70.1154 14.62 71.0554 13.38 72.1554 11.66C75.2154 6.92 76.7454 3.98 76.7454 2.84C76.7454 2.44 76.5454 2.23 76.1454 2.21C76.1054 2.21 76.0854 2.19 76.0854 2.15C76.0854 2.11 76.1054 2.09 76.1454 2.09C77.0654 2.13 77.5954 2.74 77.7354 3.92C77.7354 4 77.7354 4.09 77.7354 4.19C77.7354 5.75 76.4354 8.81 73.8354 13.37C74.8354 12.37 75.8454 11.67 76.8654 11.27C77.3654 11.07 77.8254 10.97 78.2454 10.97C78.6854 10.97 79.0954 11.07 79.4754 11.27C80.0154 11.71 80.2854 12.3 80.2854 13.04ZM76.1454 12.83C75.8254 12.83 75.4254 12.96 74.9454 13.22C74.0854 13.68 73.3254 14.42 72.6654 15.44C71.8854 16.62 71.4954 17.75 71.4954 18.83C71.4954 19.55 71.6954 20.02 72.0954 20.24C72.3154 20.38 72.5854 20.45 72.9054 20.45C73.2454 20.45 73.6654 20.32 74.1654 20.06C75.0054 19.64 75.7654 18.91 76.4454 17.87C77.2054 16.69 77.5854 15.56 77.5854 14.48C77.5854 13.38 77.1054 12.83 76.1454 12.83ZM114.365 4.79C114.365 3.85 113.265 3.2 111.065 2.84C109.785 2.64 108.315 2.54 106.655 2.54C105.015 2.54 103.205 2.64 101.225 2.84C96.3052 3.34 92.7052 4.06 90.4252 5C88.6052 5.72 88.1252 6.51 88.9852 7.37C89.0852 7.47 89.0652 7.52 88.9252 7.52C88.7852 7.52 88.6652 7.47 88.5652 7.37C88.2252 7.03 88.0552 6.64 88.0552 6.2C88.0552 5.74 88.1552 5.31 88.3552 4.91C88.5352 4.49 88.8752 4.06 89.3752 3.62C89.8752 3.18 90.4752 2.82 91.1752 2.54C93.3152 1.7 95.8052 1.1 98.6452 0.739999C100.305 0.54 101.765 0.44 103.025 0.44C106.645 0.44 109.645 0.9 112.025 1.82C113.585 2.44 114.565 3.1 114.965 3.8C115.185 4.16 115.295 4.52 115.295 4.88C115.295 5.24 115.185 5.61 114.965 5.99C114.705 6.35 114.425 6.56 114.125 6.62C113.825 6.68 113.685 6.63 113.705 6.47C113.745 6.29 113.865 6.04 114.065 5.72C114.265 5.4 114.365 5.09 114.365 4.79ZM96.7252 18.47C96.5852 19.37 96.5152 19.99 96.5152 20.33C96.5152 21.45 96.8652 22.1 97.5652 22.28C97.6652 22.32 97.7752 22.34 97.8952 22.34L98.7052 22.01C98.8652 21.87 98.9452 21.85 98.9452 21.95C98.9452 22.05 98.8852 22.14 98.7652 22.22C98.4452 22.5 98.0252 22.64 97.5052 22.64C97.4052 22.64 97.3052 22.64 97.2052 22.64C95.4252 22.5 94.5352 21.48 94.5352 19.58C94.5352 18.54 94.7652 17.36 95.2252 16.04C95.6852 14.72 96.3652 13.38 97.2652 12.02C98.1652 10.64 100.125 7.83 103.145 3.59C103.385 3.27 103.565 3.11 103.685 3.11C103.825 3.11 103.925 3.14 103.985 3.2C104.045 3.26 104.075 3.32 104.075 3.38C104.075 3.44 104.065 3.49 104.045 3.53C99.7852 9.87 97.3452 14.85 96.7252 18.47ZM112.554 15.38C112.334 15.64 112.104 15.92 111.864 16.22C111.644 16.52 111.354 16.93 110.994 17.45C110.654 17.97 110.484 18.41 110.484 18.77C110.484 19.13 110.634 19.31 110.934 19.31C111.254 19.31 111.764 19.12 112.464 18.74C113.864 17.94 115.414 16.74 117.114 15.14C117.314 14.94 117.444 14.91 117.504 15.05C117.504 15.07 117.504 15.11 117.504 15.17C117.504 15.23 117.464 15.3 117.384 15.38C113.944 18.62 111.444 20.24 109.884 20.24C109.424 20.24 109.034 20.09 108.714 19.79C108.414 19.47 108.264 19.1 108.264 18.68C108.264 18.26 108.444 17.62 108.804 16.76C107.904 17.88 106.934 18.75 105.894 19.37C104.874 19.97 104.074 20.27 103.494 20.27C102.914 20.27 102.414 20.1 101.994 19.76C101.594 19.4 101.394 18.96 101.394 18.44C101.394 16.96 102.054 15.51 103.374 14.09C104.374 13.03 105.614 12.28 107.094 11.84C107.754 11.62 108.394 11.51 109.014 11.51C109.654 11.51 110.264 11.69 110.844 12.05C111.444 12.39 111.824 12.8 111.984 13.28C112.584 13.28 113.014 13.5 113.274 13.94C113.314 14 113.334 14.1 113.334 14.24C113.334 14.38 113.254 14.54 113.094 14.72C112.954 14.9 112.774 15.12 112.554 15.38ZM110.364 12.41C109.944 12.41 109.444 12.54 108.864 12.8C107.844 13.24 106.874 14 105.954 15.08C104.494 16.8 103.764 18.06 103.764 18.86C103.764 19.28 103.934 19.49 104.274 19.49C104.554 19.49 105.014 19.31 105.654 18.95C106.314 18.59 107.174 17.88 108.234 16.82C108.294 16.76 108.524 16.54 108.924 16.16C109.324 15.78 109.664 15.45 109.944 15.17C110.884 14.19 111.354 13.49 111.354 13.07C111.354 12.63 111.024 12.41 110.364 12.41ZM124.266 14C123.386 15.02 122.666 15.96 122.106 16.82C121.566 17.66 121.296 18.26 121.296 18.62C121.296 18.96 121.496 19.13 121.896 19.13C122.316 19.13 123.156 18.72 124.416 17.9C125.696 17.08 126.876 16.16 127.956 15.14C128.056 15.04 128.146 15 128.226 15.02C128.306 15.04 128.346 15.09 128.346 15.17C128.346 15.25 128.306 15.34 128.226 15.44C125.646 17.8 123.676 19.28 122.316 19.88C121.716 20.12 121.286 20.24 121.026 20.24C120.066 20.24 119.406 20.08 119.046 19.76C118.706 19.44 118.536 19.09 118.536 18.71C118.536 17.95 118.686 17.37 118.986 16.97C119.966 15.59 120.746 14.42 121.326 13.46C121.506 13.18 121.466 12.99 121.206 12.89C120.966 12.77 120.656 12.71 120.276 12.71C119.916 12.71 119.726 12.7 119.706 12.68C118.366 14.48 117.036 15.9 115.716 16.94C115.556 17.08 115.466 17.08 115.446 16.94C115.446 16.78 115.556 16.59 115.776 16.37C117.176 15.17 118.326 13.9 119.226 12.56C119.046 12.44 118.956 12.28 118.956 12.08C118.956 11.86 118.966 11.6 118.986 11.3C119.026 11 119.186 10.6 119.466 10.1C119.946 9.26 120.446 8.84 120.966 8.84C121.406 8.84 121.626 9.08 121.626 9.56C121.626 10.22 121.316 10.94 120.696 11.72C120.396 12.08 120.116 12.34 119.856 12.5C120.596 12.26 121.676 12.14 123.096 12.14C123.796 12.14 124.296 12.4 124.596 12.92C124.636 13 124.656 13.12 124.656 13.28C124.656 13.44 124.526 13.68 124.266 14ZM132.916 10.85C132.696 10.67 132.606 10.41 132.646 10.07C132.686 9.73 132.866 9.37 133.186 8.99C133.506 8.61 133.936 8.42 134.476 8.42C134.636 8.42 134.806 8.5 134.986 8.66C135.166 8.8 135.236 9.05 135.196 9.41C135.156 9.75 134.996 10.08 134.716 10.4C134.436 10.7 134.116 10.9 133.756 11C133.416 11.08 133.136 11.03 132.916 10.85ZM132.526 12.44C131.706 13.28 131.016 14.35 130.456 15.65C129.916 16.93 129.646 17.83 129.646 18.35C129.646 18.87 129.846 19.13 130.246 19.13C130.666 19.13 131.346 18.83 132.286 18.23C133.246 17.63 134.336 16.78 135.556 15.68C135.816 15.44 135.946 15.47 135.946 15.77C135.946 15.81 135.926 15.85 135.886 15.89C134.926 16.73 134.116 17.42 133.456 17.96C132.796 18.5 132.006 19.02 131.086 19.52C130.186 20 129.446 20.24 128.866 20.24C128.146 20.24 127.606 20.08 127.246 19.76C126.906 19.44 126.736 19.09 126.736 18.71C126.736 17.99 126.866 17.42 127.126 17C127.386 16.58 127.826 16 128.446 15.26C128.226 15.44 127.876 15.74 127.396 16.16C126.936 16.58 126.616 16.86 126.436 17C126.256 17.14 126.166 17.1 126.166 16.88C126.166 16.74 126.326 16.54 126.646 16.28C126.966 16.02 127.656 15.36 128.716 14.3C129.796 13.24 130.526 12.61 130.906 12.41C131.306 12.21 131.626 12.11 131.866 12.11C132.126 12.11 132.316 12.15 132.436 12.23C132.556 12.29 132.586 12.36 132.526 12.44ZM142.23 20.54C139.57 24.5 138.24 27.09 138.24 28.31C138.24 28.67 138.41 28.95 138.75 29.15C138.83 29.21 138.79 29.27 138.63 29.33C137.77 29.19 137.25 28.58 137.07 27.5C137.05 27.32 137.04 27.08 137.04 26.78C137.04 26.48 137.11 26.03 137.25 25.43C137.39 24.83 137.55 24.32 137.73 23.9C138.51 22.18 139.68 20.1 141.24 17.66C140.6 18.36 139.85 18.97 138.99 19.49C138.13 20.01 137.41 20.27 136.83 20.27C136.25 20.27 135.75 20.1 135.33 19.76C134.93 19.4 134.73 18.96 134.73 18.44C134.73 16.96 135.39 15.51 136.71 14.09C137.71 13.03 138.95 12.28 140.43 11.84C141.09 11.62 141.73 11.51 142.35 11.51C142.99 11.51 143.6 11.69 144.18 12.05C144.78 12.39 145.16 12.8 145.32 13.28C145.46 13.28 145.54 13.31 145.56 13.37C146.02 13.45 146.46 13.64 146.88 13.94C145.7 15.46 144.15 17.66 142.23 20.54ZM137.01 18.95C137.01 19.37 137.21 19.58 137.61 19.58C137.93 19.58 138.42 19.36 139.08 18.92C139.76 18.46 140.33 17.99 140.79 17.51C141.27 17.03 141.86 16.39 142.56 15.59C143.26 14.79 143.67 14.32 143.79 14.18C144.25 13.72 144.48 13.37 144.48 13.13C144.48 12.67 144.14 12.44 143.46 12.44C143.08 12.44 142.62 12.56 142.08 12.8C141.14 13.24 140.25 13.96 139.41 14.96C137.81 16.84 137.01 18.17 137.01 18.95Z" fill="#00FFB3"/>
</svg>
